<?xml version="1.0" encoding="utf-8"?>
<!-- Generator: Adobe Illustrator 16.0.0, SVG Export Plug-In . SVG Version: 6.00 Build 0)  -->
<!DOCTYPE svg PUBLIC "-//W3C//DTD SVG 1.1//EN" "http://www.w3.org/Graphics/SVG/1.1/DTD/svg11.dtd">
<svg version="1.1" id="Layer_1" xmlns="http://www.w3.org/2000/svg" xmlns:xlink="http://www.w3.org/1999/xlink" x="0px" y="0px"
	 width="225.854px" height="225.854px" viewBox="0 0 225.854 225.854" enable-background="new 0 0 225.854 225.854"
	 xml:space="preserve">
<g>
	<path d="M225.853,225.854H0V0h225.854L225.853,225.854L225.853,225.854z M11.985,213.866h201.878V11.986H11.985V213.866z"/>
</g>
<g>
	<path d="M30.867,66.35c0-5.571,1.008-10.604,3.021-15.101c2.014-4.521,4.775-8.381,8.276-11.588c3.5-3.209,7.62-5.69,12.373-7.399
		c4.752-1.729,9.81-2.599,15.17-2.599c5.374,0,10.432,0.863,15.171,2.599c4.753,1.709,8.874,4.19,12.387,7.399
		c3.487,3.207,6.25,7.066,8.264,11.588c2.016,4.495,3.021,9.526,3.021,15.101c0,5.55-1.007,10.594-3.021,15.104
		c-2.014,4.506-4.773,8.354-8.264,11.573c-3.513,3.223-7.634,5.682-12.387,7.409c-4.739,1.726-9.797,2.589-15.171,2.589
		c-5.36,0-10.418-0.863-15.17-2.589c-4.753-1.729-8.873-4.188-12.373-7.409c-3.501-3.219-6.266-7.067-8.276-11.573
		C31.875,76.943,30.867,71.899,30.867,66.35z M52.454,66.35c0,5.271,1.509,9.527,4.526,12.795c3.021,3.268,7.271,4.896,12.727,4.896
		c5.479,0,9.715-1.628,12.734-4.896c3.021-3.268,4.53-7.523,4.53-12.795c0-5.275-1.511-9.551-4.53-12.807
		c-3.021-3.252-7.258-4.895-12.734-4.895c-5.455,0-9.703,1.643-12.727,4.895C53.963,56.799,52.454,61.071,52.454,66.35z"/>
</g>
<g>
	<path d="M139.393,155.795l-23.308-32.508h25.473l12.361,18.984l11.938-18.984h24.021l-22.732,32.508l26.897,37.397H168.6
		L153.345,169.9l-16.399,23.295H111.78L139.393,155.795z"/>
</g>
</svg>
